<svg xmlns="http://www.w3.org/2000/svg">
    <symbol id="youtube" width="24" height="24" viewBox="0 0 24 24">
        <path d="M4.652 0h1.44l.988 3.702.916-3.702h1.454l-1.665 5.505v3.757h-1.431v-3.757l-1.702-5.505zm6.594 2.373c-1.119 0-1.861.74-1.861 1.835v3.349c0 1.204.629 1.831 1.861 1.831 1.022 0 1.826-.683 1.826-1.831v-3.349c0-1.069-.797-1.835-1.826-1.835zm.531 5.127c0 .372-.19.646-.532.646-.351 0-.554-.287-.554-.646v-3.179c0-.374.172-.651.529-.651.39 0 .557.269.557.651v3.179zm4.729-5.07v5.186c-.155.194-.5.512-.747.512-.271 0-.338-.186-.338-.46v-5.238h-1.27v5.71c0 .675.206 1.22.887 1.22.384 0 .918-.2 1.468-.853v.754h1.27v-6.831h-1.27zm2.203 13.858c-.448 0-.541.315-.541.763v.659h1.069v-.66c.001-.44-.092-.762-.528-.762zm-4.703.04c-.084.043-.167.109-.25.198v4.055c.099.106.194.182.287.229.197.1.485.107.619-.067.07-.092.105-.241.105-.449v-3.359c0-.22-.043-.386-.129-.5-.147-.193-.42-.214-.632-.107zm4.827-5.195c-2.604-.177-11.066-.177-13.666 0-2.814.192-3.146 1.892-3.167 6.367.021 4.467.35 6.175 3.167 6.367 2.6.177 11.062.177 13.666 0 2.814-.192 3.146-1.893 3.167-6.367-.021-4.467-.35-6.175-3.167-6.367zm-12.324 10.686h-1.363v-7.54h-1.41v-1.28h4.182v1.28h-1.41v7.54zm4.846 0h-1.21v-.718c-.223.265-.455.467-.696.605-.652.374-1.547.365-1.547-.955v-5.438h1.209v4.988c0 .262.063.438.322.438.236 0 .564-.303.711-.487v-4.939h1.21v6.506zm4.657-1.348c0 .805-.301 1.431-1.106 1.431-.443 0-.812-.162-1.149-.583v.5h-1.221v-8.82h1.221v2.84c.273-.333.644-.608 1.076-.608.886 0 1.18.749 1.18 1.631v3.609zm4.471-1.752h-2.314v1.228c0 .488.042.91.528.91.511 0 .541-.344.541-.91v-.452h1.245v.489c0 1.253-.538 2.013-1.813 2.013-1.155 0-1.746-.842-1.746-2.013v-2.921c0-1.129.746-1.914 1.837-1.914 1.161 0 1.721.738 1.721 1.914v1.656z"/>
    </symbol>
    <symbol id="user" width="24" height="24" viewBox="0 0 24 24">
        <path d="M17.997 18h-11.995l-.002-.623c0-1.259.1-1.986 1.588-2.33 1.684-.389 3.344-.736 2.545-2.209-2.366-4.363-.674-6.838 1.866-6.838 2.491 0 4.226 2.383 1.866 6.839-.775 1.464.826 1.812 2.545 2.209 1.49.344 1.589 1.072 1.589 2.333l-.002.619zm4.811-2.214c-1.29-.298-2.49-.559-1.909-1.657 1.769-3.342.469-5.129-1.4-5.129-1.265 0-2.248.817-2.248 2.324 0 3.903 2.268 1.77 2.246 6.676h4.501l.002-.463c0-.946-.074-1.493-1.192-1.751zm-22.806 2.214h4.501c-.021-4.906 2.246-2.772 2.246-6.676 0-1.507-.983-2.324-2.248-2.324-1.869 0-3.169 1.787-1.399 5.129.581 1.099-.619 1.359-1.909 1.657-1.119.258-1.193.805-1.193 1.751l.002.463z"/>
    </symbol>
    <symbol id="info" width="24" height="24" fill-rule="evenodd" clip-rule="evenodd" viewBox="0 0 24 24">
        <path d="M24 17.981h-13l-7 5.02v-5.02h-4v-16.981h24v16.981zm-2-14.981h-20v12.981h4v3.125l4.357-3.125h11.643v-12.981zm-9 6.001v5h-2v-5h2zm-1-1.5c.69 0 1.25-.56 1.25-1.25s-.56-1.25-1.25-1.25-1.25.56-1.25 1.25.56 1.25 1.25 1.25z"/>
    </symbol>
    <symbol id="calendar" width="24" height="24" fill-rule="evenodd" clip-rule="evenodd" viewBox="0 0 24 24">
      <path d="M20 20h-4v-4h4v4zm-6-10h-4v4h4v-4zm6 0h-4v4h4v-4zm-12 6h-4v4h4v-4zm6 0h-4v4h4v-4zm-6-6h-4v4h4v-4zm16-8v22h-24v-22h3v1c0 1.103.897 2 2 2s2-.897 2-2v-1h10v1c0 1.103.897 2 2 2s2-.897 2-2v-1h3zm-2 6h-20v14h20v-14zm-2-7c0-.552-.447-1-1-1s-1 .448-1 1v2c0 .552.447 1 1 1s1-.448 1-1v-2zm-14 2c0 .552-.447 1-1 1s-1-.448-1-1v-2c0-.552.447-1 1-1s1 .448 1 1v2z"/>
    </symbol>
    <symbol id="banknote" width="24" height="24" fill-rule="evenodd" clip-rule="evenodd" viewBox="0 0 24 24">
        <path d="M22 7h-19v11h-1v-12h20v1zm-2-2h-19v11h-1v-12h20v1zm-6 6c-1.656 0-3 1.344-3 3s1.344 3 3 3 3-1.344 3-3-1.344-3-3-3zm.15 4.484v.315h-.3v-.299c-.311-.005-.632-.079-.898-.217l.135-.493c.287.11.669.229.968.162.345-.078.415-.433.034-.604-.279-.129-1.133-.242-1.133-.973 0-.409.312-.775.895-.855v-.319h.301v.305c.217.006.461.043.732.126l-.108.493c-.23-.08-.485-.154-.733-.139-.446.026-.486.413-.174.575.514.242 1.182.42 1.182 1.063 0 .516-.404.791-.901.86zm-10.15-7.484v12h20v-12h-20zm18 8.018c-.959.42-1.395 1.022-1.814 1.982h-12.372c-.419-.959-.855-1.562-1.814-1.982v-4.036c.959-.42 1.395-1.022 1.814-1.982h12.371c.42.959.855 1.562 1.814 1.982v4.036z"/>
    </symbol>
</svg>
